<svg width="64" height="64" viewBox="0 0 64 64" fill="none" xmlns="http://www.w3.org/2000/svg">
  <rect width="64" height="64" rx="18" fill="#17120D"/>
  <circle cx="32" cy="32" r="19.5" stroke="#D0A46A" stroke-width="1.5"/>
  <circle cx="32" cy="32" r="14" stroke="#D0A46A" stroke-opacity="0.3" stroke-width="1.5"/>
  <path d="M40.5 24.5C38.4 22.9 35.5 22 32.2 22C25.6 22 20.8 26.3 20.8 32.1C20.8 38.4 25.5 42.5 31.6 42.5C35.3 42.5 38.3 41.5 40.7 39.6L37.7 35.8C36.2 37.1 34.3 37.8 32.2 37.8C28.4 37.8 25.8 35.3 25.8 32.1C25.8 28.8 28.4 26.5 32.2 26.5C34.2 26.5 36.1 27.2 37.6 28.4L40.5 24.5Z" fill="#F6EEE3"/>
</svg>
